<?xml version="1.0" encoding="UTF-8"?>
<svg width="24px" height="24px" viewBox="0 0 24 24" version="1.1" xmlns="http://www.w3.org/2000/svg" xmlns:xlink="http://www.w3.org/1999/xlink">
    <title>ICON/24/历史记录备份</title>
    <g id="Anime" stroke="none" stroke-width="1" fill="none" fill-rule="evenodd">
        <g id="Anime_PC_交互说明" transform="translate(-11867.000000, -3338.000000)">
            <g id="编组-52" transform="translate(10091.000000, 3318.000000)">
                <g transform="translate(0.000000, -2324.000000)" id="编组-33备份">
                    <g transform="translate(0.000000, 2324.000000)">
                        <g id="ICON/24/历史记录备份" transform="translate(1776.000000, 20.000000)">
                            <rect id="矩形" fill="#1A1A1A" opacity="0" x="0" y="0" width="24" height="24"></rect>
                            <g id="占位" opacity="0" stroke="#979797">
                                <path d="M20,4 L20,20 L4,20 L4,4 L20,4 Z" id="Rectangle-3-Copy-2" stroke-width="8" fill="#D8D8D8" opacity="0.3"></path>
                                <rect id="Rectangle-Copy-2" opacity="0.3" x="2.69918367" y="2.66" width="18.6016327" height="18.68"></rect>
                                <rect id="Rectangle-Copy-2" opacity="0.3" x="3.93836735" y="1.46" width="16.1232653" height="21.08"></rect>
                                <rect id="Rectangle-Copy-2" opacity="0.3" x="1.46" y="3.98" width="21.08" height="16.04"></rect>
                                <circle id="Oval-2" opacity="0.3" cx="12" cy="12" r="10.54"></circle>
                            </g>
                            <path d="M12,17.5 C12.8284271,17.5 13.5,18.1715729 13.5,19 C13.5,19.8284271 12.8284271,20.5 12,20.5 C11.1715729,20.5 10.5,19.8284271 10.5,19 C10.5,18.1715729 11.1715729,17.5 12,17.5 Z M12,10.5 C12.8284271,10.5 13.5,11.1715729 13.5,12 C13.5,12.8284271 12.8284271,13.5 12,13.5 C11.1715729,13.5 10.5,12.8284271 10.5,12 C10.5,11.1715729 11.1715729,10.5 12,10.5 Z M12,3.5 C12.8284271,3.5 13.5,4.17157288 13.5,5 C13.5,5.82842712 12.8284271,6.5 12,6.5 C11.1715729,6.5 10.5,5.82842712 10.5,5 C10.5,4.17157288 11.1715729,3.5 12,3.5 Z" id="形状结合" fill="#333333"></path>
                        </g>
                    </g>
                </g>
            </g>
        </g>
    </g>
</svg>