<?xml version="1.0" encoding="UTF-8"?>
<svg width="20px" height="20px" viewBox="0 0 20 20" version="1.1" xmlns="http://www.w3.org/2000/svg" xmlns:xlink="http://www.w3.org/1999/xlink">
    <title>ICON/20/侧导/Trenging_未选中</title>
    <g id="ICON/20/侧导/Trenging_未选中" stroke="none" stroke-width="1" fill="none" fill-rule="evenodd">
        <rect id="矩形" fill="#1A1A1A" opacity="0" x="0" y="0" width="20" height="20"></rect>
        <g id="占位" opacity="0" stroke="#979797">
            <path d="M16,4 L16,16 L4,16 L4,4 L16,4 Z" id="Rectangle-3-Copy-2" stroke-width="8" fill="#D8D8D8" opacity="0.3"></path>
            <rect id="Rectangle-Copy-2" opacity="0.3" x="2.33265306" y="2.3" width="15.3346939" height="15.4"></rect>
            <rect id="Rectangle-Copy-2" opacity="0.3" x="3.36530612" y="1.3" width="13.2693878" height="17.4"></rect>
            <rect id="Rectangle-Copy-2" opacity="0.3" x="1.3" y="3.4" width="17.4" height="13.2"></rect>
            <circle id="Oval-2" opacity="0.3" cx="10" cy="10" r="8.7"></circle>
        </g>
        <path d="M6.97536519,0.770632423 C6.97536519,0.158045466 7.65495858,-0.194785187 8.15836635,0.113587393 L8.24519991,0.174951496 L9.06975428,0.826004136 L9.57206094,1.23312878 C9.89329886,1.50058859 10.1838908,1.75762333 10.4664386,2.02744479 C11.0750045,2.60860004 11.6017388,3.20979215 12.0506084,3.86008063 C12.6460799,4.72281873 13.263005,6.12040808 13.6712634,7.28193501 L13.7955608,7.65013097 L13.9242091,7.46506756 C14.1155022,7.16594477 14.2627478,6.82738377 14.3574938,6.44090161 L14.4079737,6.20319391 L14.445448,5.95357795 C14.5342883,5.21688084 15.5222363,5.01928508 15.893571,5.66394432 L16.0051,5.85842688 L16.2817042,6.35761487 L16.4310974,6.65087543 C16.4932423,6.77873158 16.5507693,6.90570303 16.6078849,7.04148778 L16.6937756,7.2529871 L16.8283558,7.61093419 L16.9792936,8.03953944 L17.1572366,8.56335084 C17.640305,9.99925109 17.7776828,10.995505 17.7776828,12.3535266 C17.7776828,16.6156183 14.3015944,20 10.0000017,20 C5.67292793,20 2.22222722,16.7407421 2.22222722,12.5012081 C2.22222722,11.078016 2.44426886,9.86390393 3.05029401,8.88939757 C3.3014373,8.48558973 3.52264076,8.17609162 3.76304652,7.88692086 L3.88546787,7.74314445 L4.01696183,7.59530232 L4.21452386,7.38264762 L5.38315241,6.10805703 L5.50328865,5.96186972 L5.61959946,5.80298795 L5.72987372,5.63383109 L5.8548485,5.42431802 L6.08645418,5.00583568 C6.57182116,4.10309691 6.97536519,2.14714968 6.97536519,0.770632423 Z M8.377,2.195 L8.35035978,2.40690794 C8.18837096,3.55345169 7.88141724,4.727229 7.50360642,5.52440764 L7.39886599,5.73217944 L7.14307217,6.19274485 L6.98644398,6.45299603 L6.82994215,6.68903003 L6.6621688,6.91423351 L6.48877393,7.12176362 L5.31346425,8.40359326 L5.12844872,8.60257432 L4.91649557,8.84585531 C4.71909279,9.08330017 4.53740687,9.3385235 4.32407491,9.68153532 C3.91909881,10.3327489 3.72222722,11.2375003 3.72222722,12.5012081 C3.72222722,15.8741766 6.46287197,18.5 10.0000017,18.5 C13.4914671,18.5 16.2776828,15.7689737 16.2776828,12.3535266 C16.2776828,11.2174979 16.171546,10.4335331 15.8516485,9.40030113 L15.7369513,9.04583348 L15.5644617,8.53778719 L15.4243139,8.13882288 L15.36,7.969 L15.3078444,8.06981015 L15.1558522,8.321254 L13.2856929,11.0115195 L12.3533436,8.06394164 C11.9397215,6.81523468 11.3161236,5.43658064 10.8161396,4.71218785 C10.4381941,4.16464891 9.9832943,3.64015899 9.43049048,3.11225419 C9.26309642,2.95239977 9.09001754,2.79505888 8.90791302,2.63684134 L8.62756941,2.39843378 L8.377,2.195 Z" id="路径" fill="#333333" fill-rule="nonzero"></path>
        <path d="M6.74960493,12.293033 C7.10751475,12.1662678 7.49750513,12.3274687 7.66653607,12.6559595 L7.70696698,12.7496049 C8.02246926,13.640396 8.86787435,14.248172 9.82864752,14.248172 C10.2428611,14.248172 10.5786475,14.5839585 10.5786475,14.998172 C10.5786475,15.4123856 10.2428611,15.748172 9.82864752,15.748172 C8.22757706,15.748172 6.81905164,14.7355592 6.29303302,13.2503951 C6.15474364,12.859948 6.35915785,12.4313224 6.74960493,12.293033 Z" id="路径" fill="#333333" fill-rule="nonzero"></path>
    </g>
</svg>