<?xml version="1.0" encoding="UTF-8"?>
<svg width="24px" height="24px" viewBox="0 0 24 24" version="1.1" xmlns="http://www.w3.org/2000/svg" xmlns:xlink="http://www.w3.org/1999/xlink">
    <title>ICON/24/收藏</title>
    <g id="Anime" stroke="none" stroke-width="1" fill="none" fill-rule="evenodd">
        <g id="顶导浮层_收藏" transform="translate(-2827.000000, -1539.000000)">
            <g id="顶导_已登录备份" transform="translate(1027.000000, 1519.000000)">
                <g id="编组-26" transform="translate(1704.000000, 20.000000)">
                    <g id="ICON/24/收藏" transform="translate(96.000000, 0.000000)">
                        <rect id="矩形" fill="#CCCCCC" opacity="0" x="0" y="0" width="24" height="24"></rect>
                        <path d="M6.86363636,2.72727273 L17.1363636,2.72727273 C18.5170755,2.72727273 19.6363636,3.84656085 19.6363636,5.22727273 L19.6363636,20.6404567 C19.6363636,21.1927414 19.1886484,21.6404567 18.6363636,21.6404567 C18.4623367,21.6404567 18.2913224,21.5950414 18.1402247,21.5086998 L12.4961389,18.283508 C12.1887063,18.1078322 11.8112937,18.1078322 11.5038611,18.283508 L5.8597753,21.5086998 C5.38025786,21.7827098 4.76940319,21.6161131 4.49539322,21.1365956 C4.40905168,20.9854979 4.36363636,20.8144836 4.36363636,20.6404567 L4.36363636,5.22727273 C4.36363636,3.84656085 5.48292449,2.72727273 6.86363636,2.72727273 Z" id="矩形" stroke="#333333" stroke-width="1.5" stroke-linejoin="round"></path>
                        <path d="M12,6.99242424 C12.4142136,6.99242424 12.75,7.32821068 12.75,7.74242424 L12.7498182,10.0604242 L15.0681818,10.0606061 C15.4823954,10.0606061 15.8181818,10.3963925 15.8181818,10.8106061 C15.8181818,11.2248196 15.4823954,11.5606061 15.0681818,11.5606061 L12.7498182,11.5604242 L12.75,13.8787879 C12.75,14.2930014 12.4142136,14.6287879 12,14.6287879 C11.5857864,14.6287879 11.25,14.2930014 11.25,13.8787879 L11.2498182,11.5604242 L8.93181818,11.5606061 C8.51760462,11.5606061 8.18181818,11.2248196 8.18181818,10.8106061 C8.18181818,10.3963925 8.51760462,10.0606061 8.93181818,10.0606061 L11.2498182,10.0604242 L11.25,7.74242424 C11.25,7.32821068 11.5857864,6.99242424 12,6.99242424 Z" id="形状结合备份-6" fill="#4C93FF"></path>
                    </g>
                </g>
            </g>
        </g>
    </g>
</svg>