<?xml version="1.0" encoding="UTF-8"?>
<svg width="20px" height="20px" viewBox="0 0 20 20" version="1.1" xmlns="http://www.w3.org/2000/svg" xmlns:xlink="http://www.w3.org/1999/xlink">
    <title>ICON/20/侧导/Category_未选中</title>
    <g id="ICON/20/侧导/Category_未选中" stroke="none" stroke-width="1" fill="none" fill-rule="evenodd">
        <g id="占位" opacity="0" stroke="#979797">
            <path d="M16,4 L16,16 L4,16 L4,4 L16,4 Z" id="Rectangle-3-Copy-2" stroke-width="8" fill="#D8D8D8" opacity="0.3"></path>
            <rect id="Rectangle-Copy-2" opacity="0.3" x="2.33265306" y="2.3" width="15.3346939" height="15.4"></rect>
            <rect id="Rectangle-Copy-2" opacity="0.3" x="3.36530612" y="1.3" width="13.2693878" height="17.4"></rect>
            <rect id="Rectangle-Copy-2" opacity="0.3" x="1.3" y="3.4" width="17.4" height="13.2"></rect>
            <circle id="Oval-2" opacity="0.3" cx="10" cy="10" r="8.7"></circle>
        </g>
        <path d="M15.8821497,2.00201469 C16.8837727,2.00201469 17.5411666,2.74478186 17.5411666,3.6610316 C17.5411666,4.00314056 17.4354514,4.33542062 17.2242117,4.63131676 L17.109799,4.7761099 L12.4944822,9.57735513 C12.2074281,9.87597327 11.7326469,9.88534775 11.4340287,9.59829361 C11.1625577,9.3373353 11.130131,8.92123066 11.3421468,8.62337573 L11.4130903,8.53784013 L16.0023204,3.76517276 C16.0273747,3.73626203 16.0411666,3.69928797 16.0411666,3.6610316 C16.0411666,3.59077351 15.9956022,3.53115754 15.9324113,3.51012147 L15.8821497,3.50201469 L3.90903119,3.50201469 C3.87077482,3.50201469 3.83380075,3.51580657 3.80489002,3.5408609 C3.75179527,3.58687336 3.73658325,3.66034967 3.74871383,3.70724848 L3.76277382,3.7365949 L8.40417725,8.56641799 C8.76383361,8.98143311 8.9797805,9.49933681 9.0233285,10.0432168 L9.03152176,10.2482392 L9.03152176,16.2473875 C9.03152176,16.2953229 9.05304643,16.3397645 9.08864756,16.3694809 L9.12866498,16.393873 L10.5387685,16.9894833 C10.5583483,16.9977536 10.5793874,17.0020147 10.6006422,17.0020147 C11.0148557,17.0020147 11.3506422,17.3378011 11.3506422,17.7520147 C11.3506422,18.1662282 11.0148557,18.5020147 10.6006422,18.5020147 C10.4343294,18.5020147 10.2692824,18.4770084 10.1109748,18.4281045 L9.95511642,18.3712758 L8.54501291,17.7756654 C7.9780012,17.5361667 7.59421392,17.0047882 7.53852482,16.3999901 L7.53152176,16.2473875 L7.53152176,10.2482392 C7.53152176,10.0341158 7.46719338,9.82597333 7.36346456,9.66670679 L7.29669864,9.57735513 L2.65529521,4.74753205 C2.05523758,4.05511278 2.13011148,3.00735325 2.82253074,2.40729562 C3.08106597,2.18324635 3.40140692,2.04552412 3.73900204,2.01074735 L3.90903119,2.00201469 L15.8821497,2.00201469 Z M13.5360989,15.1869766 C13.9503125,15.1869766 14.2860989,15.522763 14.2860989,15.9369766 C14.2860989,16.3166723 14.0039451,16.6304675 13.6378695,16.68013 L13.5360989,16.6869766 L12.0360989,16.6869766 C11.6218854,16.6869766 11.2860989,16.3511901 11.2860989,15.9369766 C11.2860989,15.5572808 11.5682528,15.2434856 11.9343284,15.1938232 L12.0360989,15.1869766 L13.5360989,15.1869766 Z M14.0360989,12.9144343 C14.4503125,12.9144343 14.7860989,13.2502207 14.7860989,13.6644343 C14.7860989,14.04413 14.5039451,14.3579252 14.1378695,14.4075877 L14.0360989,14.4144343 L12.0360989,14.4144343 C11.6218854,14.4144343 11.2860989,14.0786478 11.2860989,13.6644343 C11.2860989,13.2847385 11.5682528,12.9709433 11.9343284,12.9212809 L12.0360989,12.9144343 L14.0360989,12.9144343 Z M15.0360989,10.641892 C15.4503125,10.641892 15.7860989,10.9776784 15.7860989,11.391892 C15.7860989,11.7715878 15.5039451,12.085383 15.1378695,12.1350454 L15.0360989,12.141892 L12.0360989,12.141892 C11.6218854,12.141892 11.2860989,11.8061056 11.2860989,11.391892 C11.2860989,11.0121962 11.5682528,10.698401 11.9343284,10.6487386 L12.0360989,10.641892 L15.0360989,10.641892 Z" id="形状结合" fill="#333333" fill-rule="nonzero"></path>
    </g>
</svg>