<?xml version="1.0" encoding="UTF-8"?>
<svg width="20px" height="20px" viewBox="0 0 20 20" version="1.1" xmlns="http://www.w3.org/2000/svg" xmlns:xlink="http://www.w3.org/1999/xlink">
    <title>ICON/20/Creation Center</title>
    <g id="Web-导航栏创作中心入口强化" stroke="none" stroke-width="1" fill="none" fill-rule="evenodd">
        <g id="交互说明" transform="translate(-538.000000, -871.000000)">
            <g id="顶导_web情况最窄" transform="translate(254.000000, 849.000000)">
                <g id="编组-11" transform="translate(272.000000, 16.000000)">
                    <g id="编组-8" transform="translate(0.000000, 2.000000)">
                        <g id="ICON/20/Creation-Center" transform="translate(12.000000, 4.000000)">
                            <rect id="矩形" fill="#1A1A1A" opacity="0" x="0" y="0" width="20" height="20"></rect>
                            <g id="占位" opacity="0" stroke="#979797">
                                <path d="M16,4 L16,16 L4,16 L4,4 L16,4 Z" id="Rectangle-3-Copy-2" stroke-width="8" fill="#D8D8D8" opacity="0.3"></path>
                                <rect id="Rectangle-Copy-2" opacity="0.3" x="2.33265306" y="2.3" width="15.3346939" height="15.4"></rect>
                                <rect id="Rectangle-Copy-2" opacity="0.3" x="3.36530612" y="1.3" width="13.2693878" height="17.4"></rect>
                                <rect id="Rectangle-Copy-2" opacity="0.3" x="1.3" y="3.4" width="17.4" height="13.2"></rect>
                                <circle id="Oval-2" opacity="0.3" cx="10" cy="10" r="8.7"></circle>
                            </g>
                            <path d="M15,3 C15.5522847,3 16,3.44771525 16,4 L16,7.399 L18.1286093,6.54855627 C18.2073562,6.51705753 18.2896278,6.49576897 18.3734205,6.48507646 L18.5,6.47703296 C19.0128358,6.47703296 19.4355072,6.86307315 19.4932723,7.36041184 L19.5,7.47703296 L19.5,12.522967 C19.5,12.6501865 19.4757248,12.7762374 19.4284767,12.8943577 C19.2380142,13.3705138 18.7226087,13.6195826 18.2393879,13.4885092 L18.1286093,13.4514437 L16,12.6 L16,16 C16,16.5522847 15.5522847,17 15,17 L2,17 C1.44771525,17 1,16.5522847 1,16 L1,4 C1,3.44771525 1.44771525,3 2,3 L15,3 Z M8.5,6.25 C8.08578644,6.25 7.75,6.58578644 7.75,7 L7.75,7 L7.749,9.25 L6,9.25 L5.89822944,9.25684662 C5.53215388,9.30650904 5.25,9.62030423 5.25,10 C5.25,10.4142136 5.58578644,10.75 6,10.75 L6,10.75 L7.75,10.75 L7.75,13 L7.75684662,13.1017706 C7.80650904,13.4678461 8.12030423,13.75 8.5,13.75 C8.91421356,13.75 9.25,13.4142136 9.25,13 L9.25,13 L9.25,10.75 L11,10.75 L11.1017706,10.7431534 C11.4678461,10.693491 11.75,10.3796958 11.75,10 C11.75,9.58578644 11.4142136,9.25 11,9.25 L11,9.25 L9.249,9.25 L9.25,7 L9.24315338,6.89822944 C9.19349096,6.53215388 8.87969577,6.25 8.5,6.25 Z" id="形状结合" fill="#4C93FF" fill-rule="nonzero"></path>
                        </g>
                    </g>
                </g>
            </g>
        </g>
    </g>
</svg>