<?xml version="1.0" encoding="UTF-8"?>
<svg width="20px" height="20px" viewBox="0 0 20 20" version="1.1" xmlns="http://www.w3.org/2000/svg" xmlns:xlink="http://www.w3.org/1999/xlink">
    <title>ICON/20/侧导/Anime_未选中</title>
    <g id="ICON/20/侧导/Anime_未选中" stroke="none" stroke-width="1" fill="none" fill-rule="evenodd">
        <g id="占位" opacity="0" stroke="#979797">
            <path d="M16,4 L16,16 L4,16 L4,4 L16,4 Z" id="Rectangle-3-Copy-2" stroke-width="8" fill="#D8D8D8" opacity="0.3"></path>
            <rect id="Rectangle-Copy-2" opacity="0.3" x="2.33265306" y="2.3" width="15.3346939" height="15.4"></rect>
            <rect id="Rectangle-Copy-2" opacity="0.3" x="3.36530612" y="1.3" width="13.2693878" height="17.4"></rect>
            <rect id="Rectangle-Copy-2" opacity="0.3" x="1.3" y="3.4" width="17.4" height="13.2"></rect>
            <circle id="Oval-2" opacity="0.3" cx="10" cy="10" r="8.7"></circle>
        </g>
        <g id="编组-2" opacity="0.9" transform="translate(1.000000, 2.500000)" fill="#333333">
            <path d="M2.36797723,0.00164262845 L15.4361148,0 C16.3276335,0 16.6509198,0.0928256111 16.9768457,0.267132704 C17.3027716,0.441439796 17.5585602,0.697228371 17.7328673,1.0231543 C17.9071744,1.34908022 18,1.67236646 18,2.5638852 L18,9.4361148 C18,10.3276335 17.9071744,10.6509198 17.7328673,10.9768457 C17.5585602,11.3027716 17.3027716,11.5585602 16.9768457,11.7328673 C16.6509198,11.9071744 16.3276335,12 15.4361148,12 L2.5638852,12 C1.67236646,12 1.34908022,11.9071744 1.0231543,11.7328673 C0.697228371,11.5585602 0.441439796,11.3027716 0.267132704,10.9768457 C0.106233849,10.675991 0.0147630022,10.3773855 0.00164262845,9.63202277 L0,2.5638852 C0,1.67236646 0.0928256111,1.34908022 0.267132704,1.0231543 C0.441439796,0.697228371 0.697228371,0.441439796 1.0231543,0.267132704 C1.324009,0.106233849 1.6226145,0.0147630022 2.36797723,0.00164262845 Z M2.41509294,1.50060537 L2.15609689,1.50660198 L1.9772437,1.51975204 C1.90403864,1.52826602 1.85230527,1.53980133 1.80917073,1.55486618 L1.73055258,1.5898525 C1.66602937,1.62435989 1.62435989,1.66602937 1.5898525,1.73055258 L1.55792636,1.80065465 C1.54860373,1.8258818 1.54056394,1.85389558 1.5336972,1.88747652 L1.51650639,2.00770139 L1.50569532,2.17801246 L1.50060537,2.41509294 L1.50060537,9.58490706 L1.50660198,9.84390311 L1.51975204,10.0227563 C1.52826602,10.0959614 1.53980133,10.1476947 1.55486618,10.1908293 L1.5898525,10.2694474 C1.62435989,10.3339706 1.66602937,10.3756401 1.73055258,10.4101475 L1.80065465,10.4420736 C1.8258818,10.4513963 1.85389558,10.4594361 1.88747652,10.4663028 L2.00770139,10.4834936 L2.17801246,10.4943047 L2.5638852,10.5 L15.5849071,10.4993946 L15.8219875,10.4943047 L15.9922986,10.4834936 L16.1125235,10.4663028 C16.1461044,10.4594361 16.1741182,10.4513963 16.1993453,10.4420736 L16.2694474,10.4101475 C16.3339706,10.3756401 16.3756401,10.3339706 16.4101475,10.2694474 L16.4420736,10.1993453 C16.4513963,10.1741182 16.4594361,10.1461044 16.4663028,10.1125235 L16.4834936,9.99229861 L16.4943047,9.82198754 L16.5,9.4361148 L16.4993946,2.41509294 L16.4943047,2.17801246 L16.4834936,2.00770139 L16.4663028,1.88747652 C16.4594361,1.85389558 16.4513963,1.8258818 16.4420736,1.80065465 L16.4101475,1.73055258 C16.3756401,1.66602937 16.3339706,1.62435989 16.2694474,1.5898525 L16.1993453,1.55792636 C16.1741182,1.54860373 16.1461044,1.54056394 16.1125235,1.5336972 L15.9922986,1.51650639 L15.8219875,1.50569532 L15.5849071,1.50060537 L2.41509294,1.50060537 Z" id="矩形" fill-rule="nonzero"></path>
            <path d="M10.6984714,6.57442088 L8.16447613,8.36244997 C7.68021082,8.70459322 7,8.3692318 7,7.78836819 L7,4.21163181 C7,3.6307682 7.68021082,3.29540678 8.16447613,3.63755003 L10.6984714,5.42557912 C11.1005095,5.70939865 11.1005095,6.29060135 10.6984714,6.57442088" id="Path"></path>
            <path d="M13,13.75 C13.4142136,13.75 13.75,14.0857864 13.75,14.5 C13.75,14.8796958 13.4678461,15.193491 13.1017706,15.2431534 L13,15.25 L5,15.25 C4.58578644,15.25 4.25,14.9142136 4.25,14.5 C4.25,14.1203042 4.53215388,13.806509 4.89822944,13.7568466 L5,13.75 L13,13.75 Z" id="路径" fill-rule="nonzero"></path>
        </g>
    </g>
</svg>