<?xml version="1.0" encoding="UTF-8"?>
<svg width="14px" height="14px" viewBox="0 0 14 14" version="1.1" xmlns="http://www.w3.org/2000/svg" xmlns:xlink="http://www.w3.org/1999/xlink">
    <title>14px勾</title>
    <g id="控件" stroke="none" stroke-width="1" fill="none" fill-rule="evenodd">
        <g id="icon_checkbox_selected" transform="translate(-2.000000, -2.000000)">
            <g id="14px勾" transform="translate(2.000000, 2.000000)">
                <rect id="矩形" fill="#CCCCCC" opacity="0" x="0" y="0" width="14" height="14"></rect>
                <path d="M3,2.65685425 C3.51283584,2.65685425 3.93550716,3.04289444 3.99327227,3.54023312 L4,3.65685425 L4,6.65685425 L11,6.65685425 C11.5128358,6.65685425 11.9355072,7.04289444 11.9932723,7.54023312 L12,7.65685425 C12,8.16969009 11.6139598,8.59236141 11.1166211,8.65012652 L11,8.65685425 L3,8.65685425 C2.48716416,8.65685425 2.06449284,8.27081406 2.00672773,7.77347537 L2,7.65685425 L2,3.65685425 C2,3.1045695 2.44771525,2.65685425 3,2.65685425 Z" id="勾" fill="#FFFFFF" fill-rule="nonzero" transform="translate(7.000000, 5.656854) rotate(-45.000000) translate(-7.000000, -5.656854) "></path>
            </g>
        </g>
    </g>
</svg>