<?xml version="1.0" encoding="UTF-8"?>
<svg width="24px" height="24px" viewBox="0 0 24 24" version="1.1" xmlns="http://www.w3.org/2000/svg" xmlns:xlink="http://www.w3.org/1999/xlink">
    <title>HD</title>
    <g id="HD" stroke="none" stroke-width="1" fill="none" fill-rule="evenodd">
        <rect id="矩形备份-3" x="0" y="0" width="24" height="24"></rect>
        <g id="编组-6" transform="translate(2.250000, 3.750000)">
            <path d="M2.5638852,-1.03584031e-16 L16.9361148,1.03584031e-16 C17.8276335,-6.01853049e-17 18.1509198,0.0928256111 18.4768457,0.267132704 C18.8027716,0.441439796 19.0585602,0.697228371 19.2328673,1.0231543 C19.4071744,1.34908022 19.5,1.67236646 19.5,2.5638852 L19.5,10.9361148 C19.5,11.8276335 19.4071744,12.1509198 19.2328673,12.4768457 C19.0585602,12.8027716 18.8027716,13.0585602 18.4768457,13.2328673 C18.1509198,13.4071744 17.8276335,13.5 16.9361148,13.5 L2.5638852,13.5 C1.67236646,13.5 1.34908022,13.4071744 1.0231543,13.2328673 C0.697228371,13.0585602 0.441439796,12.8027716 0.267132704,12.4768457 C0.0928256111,12.1509198 -1.57462745e-16,11.8276335 2.71006782e-16,10.9361148 L6.90560205e-17,2.5638852 C-4.01235366e-17,1.67236646 0.0928256111,1.34908022 0.267132704,1.0231543 C0.441439796,0.697228371 0.697228371,0.441439796 1.0231543,0.267132704 C1.34908022,0.0928256111 1.67236646,6.01853049e-17 2.5638852,-1.03584031e-16 Z" id="矩形" fill="#4C93FF"></path>
            <text id="HD" font-family="Verdana-Bold, Verdana" font-size="7.5" font-weight="bold" line-spacing="12" letter-spacing="-0.225000009" fill="#FFFFFF">
                <tspan x="4.09694825" y="8.75">HD</tspan>
            </text>
            <line x1="6" y1="15.75" x2="13.5" y2="15.75" id="路径-8" stroke="#4C93FF" stroke-width="1.5" stroke-linecap="round" stroke-linejoin="round"></line>
        </g>
    </g>
</svg>